<?xml version="1.0" encoding="UTF-8"?><svg id="Layer_2" xmlns="http://www.w3.org/2000/svg" viewBox="0 0 867.3 942.6"><g id="Layer_5"><g id="Layer_4"><path d="M867.3,100.27c0,1.35-.46,2.85-1.35,4.48-13.43,24.42-123.46,76.59-199.07,76.59-80.64,0-152.2-75.31-152.2-90.67,0-9.4,23.89-41.98,59.1-64.97v-.02c22.29-14.54,53.25-25.69,94.99-25.69,98.8,0,198.61,70.91,198.53,100.27Z" style="fill:#468000;"/><path d="M814.19,96.79c0,.86-.33,1.82-.97,2.86-9.67,15.58-88.89,48.87-143.33,48.87-58.06,0-102.1-48.74-102.1-58.54,0-6,9.72-26.1,35.07-40.77h.01c16.04-9.29,38.33-16.4,68.38-16.4,77.55,0,142.94,50.11,142.94,63.98Z" style="fill:#88bf3f;"/><path d="M813.22,99.65c-9.67,15.58-88.89,48.87-143.33,48.87-58.06,0-102.1-48.74-102.1-58.54,0-6,9.72-26.1,35.07-40.77-1.04,1.13-84.05,92.19,210.36,50.44Z" style="fill:#7aa543;"/></g><g id="Layer_3"><path d="M679.13,602.68s-57.35,194.97-295.11,293.33c-175.12,72.46-312.91,47.23-355.66,12.52-12.98-10.55-21.99-24.83-26-40.6,73.87,88.29,382.23-85.08,479.72-244.48,158.63-259.38,54.86-419.73,20.54-461.64,272.35,118.42,176.51,440.87,176.51,440.87Z" style="fill:#ffa001;"/><path d="M482.08,623.45C384.59,782.85,76.23,956.22,2.36,867.93c-1.98-7.73-2.74-15.81-2.19-23.99,5.83-86.31,52.95-160.06,58.49-258.49,5.48-97.16-10.38-139.52,2.11-203.22,12.26-62.56,46.43-117.67,92.23-162.02,63.29-61.28,133.06-98.6,272.6-79.94,24.79,3.31,49.06,9.78,72.12,19.45,1.65,.69,3.28,1.39,4.9,2.09,34.32,41.91,138.09,202.26-20.54,461.64Z" style="fill:#ffb902;"/><circle cx="226.18" cy="217.55" r="16.5" style="fill:#fff;"/><path d="M105.24,530.71c-8.27,0-15.41-6.21-16.37-14.62-6.53-56.91-3.76-108.21,8.23-152.5,12.52-46.23,35.38-86.09,67.95-118.47,6.46-6.42,16.91-6.39,23.33,.07,6.42,6.46,6.39,16.91-.07,23.33-57.16,56.82-78.96,136.57-66.66,243.8,1.04,9.05-5.46,17.23-14.51,18.27-.64,.07-1.27,.11-1.9,.11Z" style="fill:#fff;"/></g></g></svg>