<?xml version="1.0" encoding="UTF-8"?><svg id="Layer_1" xmlns="http://www.w3.org/2000/svg" viewBox="0 0 444.57 312.76"><path d="M412.51,19.28c-50.22,31.25-100.4,62.55-150.62,93.79-4.86,3.02-2.9,5.18,3.47,8.33,22.71,11.24,44,25.08,63.85,40.84,5.31,4.21,8.09,4.43,10.55-.59,2.83-5.78,5.85-11.46,9.25-16.93,1.1-1.76,2.34-4.96,5.31-3.21,2.1,1.23,1.77,3.58,.82,5.4-4.58,8.69-9.2,17.37-14.05,25.92-2.13,3.76-5.01,2.01-7.68,.31-15.45-9.86-30.96-19.62-46.31-29.63-3.62-2.36-5.93-2.56-9.45,.62-15.56,14.07-31.49,27.75-47.3,41.55-1.09,.95-2.2,2.5-3.85,1.47-1.62-1.01-1.07-2.82-.38-4.07,3.37-6.16-3.1-9.22-4.36-13.94-4.73-17.7-10.18-35.2-15.03-52.87-1.34-4.87-4.17-6.99-8.76-8.31-24.34-6.99-48.63-14.17-72.9-21.39-2.21-.66-5.85-.47-5.76-3.66,.08-2.74,3.48-2.66,5.61-3.21,59.67-15.52,119.35-30.97,179.03-46.45L429.22,.36c6.48-1.83,2.78,3.85,1.85,5.6-15.01,28.06-30.12,56.07-45.21,84.09-1.26,2.35-2.38,4.78-3.77,7.05-1.15,1.89-2.17,4.93-5.09,3.47-2.96-1.47-1.88-4.35-.69-6.59,6.77-12.82,13.61-25.6,20.48-38.36,6.08-11.3,12.24-22.55,18.28-33.87,.71-1.43,1.83-5.14-2.56-2.46h0ZM141.87,82.51c-.54,.14-.63,.86-.15,1.14,1.41,.8,2.04,1.22,2.72,1.42,20.12,5.93,40.26,11.8,60.39,17.72,3.49,1.03,6.49-.16,9.57-1.62,41.07-19.49,82.17-38.91,123.25-58.38,14.95-7.09,29.85-14.25,44.78-21.39,.67-.32,.3-1.33-.42-1.15-79.54,20.62-159.09,41.24-240.15,62.26h.01Zm236.06-49.84c.66-.41,.11-1.41-.59-1.08-53.84,25.54-107.69,51.08-161.54,76.6-3.18,1.51-3.02,3.81-2.19,6.68,4.59,16.01,9.04,32.06,13.62,48.07,.3,1.04,.93,1.98,1.52,2.94,.24,.38,.79,.39,1.04,0,.59-.91,1.23-1.81,1.49-2.81,3.3-12.9,6.48-25.84,9.73-38.76,1.33-5.28,4.8-9.17,9.17-11.95,18.14-11.53,36.42-22.82,54.66-34.19,24.36-15.18,48.73-30.34,73.09-45.51h0ZM237.44,167.87c-.15,.59,.56,1.02,1.02,.62,9.98-8.75,18.62-16.31,27.22-23.91,1.15-1.01,3.56-2.66,1.85-3.89-5.77-4.11-11.91-7.71-18.06-11.24-1.27-.73-2.34,.8-2.86,2.12-.12,.31-.23,.62-.31,.94-2.8,11.16-5.59,22.33-8.85,35.36h0Z" style="fill:#cbcdd4;"/><path d="M198.68,265.12c-.17-.02-.38,.02-.49-.07-11.91-8.72-18.26,1.31-25.82,7.55-2.71,2.24-6.21,6.06-9.37,2.29-3.45-4.12,1.92-6.09,4.2-8.49,2.27-2.41,4.82-4.57,7.36-6.7,3.04-2.55,4.24-4.95,.55-8.06-2.11-1.78-2.74-4.41-.85-6.68,2.18-2.61,4.38-.88,6.57,.48,6.32,3.95,12.74,7.77,19.08,11.69,1.9,1.18,3.54,2.69,2.93,5.24-.5,2.11-2.13,2.81-4.17,2.74h0Z" style="fill:#cbcdd4;"/><path d="M.02,235.91c-.05,.73-.04-1.44,.27-3.56,.31-2.13,1.47-3.79,3.83-3.9,2.64-.13,4.21,1.59,4.26,3.92,.17,8.32,1.38,16.46,3.14,24.57,.46,2.13-.09,4.56-2.82,5.06-2.81,.51-4.39-1.41-5.1-3.75-1.95-6.34-3.8-12.72-3.58-22.34Z" style="fill:#cbcdd4;"/><path d="M304.72,277.23c2.25,.11,4.31,1.25,4.42,3.9,.11,2.68-1.86,3.97-4.13,4.14-8.78,.66-17.58,1.16-26.26-.95-2.19-.53-4.22-1.78-3.82-4.44,.39-2.61,2.62-3.24,4.9-3.28l24.89,.63h0Z" style="fill:#cbcdd4;"/><path d="M68.05,160.78c1.24,.1,3.42,.12,5.54,.49,2.16,.38,3.67,1.72,3.62,4.09-.06,2.38-1.65,3.68-3.8,3.95-8.4,1.03-16.82,1.95-25.24,2.82-2.18,.23-4.08-.55-4.49-2.98-.44-2.58,1.17-4.14,3.37-4.89,6.5-2.22,13.22-3.31,21.02-3.49h-.02Z" style="fill:#cbcdd4;"/><path d="M336.14,282.36c-4.29-.11-6.65-.66-7.09-3.53-.4-2.59,1.46-4.03,3.68-4.65,7.86-2.19,15.74-4.29,23.65-6.31,2.54-.65,4.77,.11,5.57,2.86,.75,2.56-.81,4.38-2.99,5.05-8.11,2.49-16.29,4.72-22.81,6.58h-.01Z" style="fill:#cbcdd4;"/><path d="M251.34,280.35c-2.22,.37-4.49,.2-6.68-.35-6.04-1.52-12.81-3.19-19.52-5.05-2.14-.59-3.96-2.2-3.36-4.8,.67-2.87,3.18-3.38,5.54-2.9,7.63,1.53,15.22,3.27,22.79,5.05,2.45,.58,5.19,1.54,4.85,4.7-.25,2.28-1.63,3.01-3.62,3.35h0Z" style="fill:#cbcdd4;"/><path d="M438.17,199.28c.02,.6-.09,1.2-.31,1.75-3.16,8.24-6.98,16.58-12.74,23.89-1.25,1.59-3.2,1.75-4.98,.57-1.62-1.08-2.06-2.8-1.28-4.41,3.91-8.08,7.91-16.11,12.01-24.1,.88-1.71,2.51-2.82,4.59-2.01,1.86,.72,2.64,2.18,2.7,4.31h0Z" style="fill:#cbcdd4;"/><path d="M75.17,312.56c-1.33,.18-2.67,.24-4.01,.18-1.92-.09-3.32-.13-4.69-.31-2.24-.3-4.44-1.09-4.61-3.74-.19-2.91,1.99-4.22,4.43-4.46,8.1-.79,16.22-1.39,24.34-1.92,2.39-.16,4.33,.94,4.54,3.6,.21,2.67-1.65,4-3.93,4.37-5.6,.9-11.22,1.63-16.07,2.29h0Z" style="fill:#cbcdd4;"/><path d="M101.68,168.52c8,4.14,16.89,8.55,23.74,16.01,1.34,1.46,1.03,3.47-.5,4.95-1.54,1.49-3.32,1.43-5.01,.33-7.09-4.58-14.16-9.19-21.2-13.84-1.8-1.19-2.79-2.9-1.98-5.12,.65-1.78,2.09-2.47,4.95-2.33h0Z" style="fill:#cbcdd4;"/><path d="M219.96,210.56c.06,1.08-.19,2.14-.63,3.13-3.45,7.77-7.6,15.9-13.91,22.72-1.43,1.54-3.31,1.41-4.95,.03-1.45-1.21-1.98-2.79-1.02-4.45,4.59-7.9,9.22-15.77,13.96-23.59,.91-1.5,2.54-2.23,4.35-1.34,1.41,.69,2.1,1.79,2.2,3.5h0Z" style="fill:#cbcdd4;"/><path d="M403.52,239.78c.89-.24,1.84-.07,2.58,.47,.57,.42,1.13,.88,1.49,1.46,1.09,1.78,.5,3.71-.87,5.05-6.23,6.06-13.02,11.42-20.56,15.77-2.02,1.17-4.26,1.13-5.79-1.04-1.27-1.8-.78-3.67,.8-4.91,7.07-5.54,14.24-10.97,21.4-16.4,.25-.19,.56-.3,.95-.41h0Z" style="fill:#cbcdd4;"/><path d="M160.2,226c.85,1.73,.45,3.89-1.06,5.09-.12,.09-.24,.18-.36,.25-1.66,1.01-3.32,.09-4.38-1.28-5.38-6.95-10.71-13.94-15.95-20.99-1.17-1.58-1.25-3.61,.31-5,.86-.76,2.38-1.29,3.51-1.14,2.39,.3,14.52,16.11,17.93,23.08h0Z" style="fill:#cbcdd4;"/><path d="M121.75,301.81c-1.06,.36-2.19,.51-3.3,.41-1.83-.17-3.01-.76-3.51-2.36-.65-2.11,.6-3.65,2.33-4.48,7.65-3.67,15.33-7.27,23.07-10.74,1.87-.84,4.05-.87,5.37,1.19,1.18,1.84,.56,3.81-1.05,4.88-7.35,4.88-15.29,8.55-22.9,11.1h0Z" style="fill:#cbcdd4;"/><path d="M24.02,179.19c4.34,1.11,4.7,3.56,2.73,6.77-4.09,6.64-8.23,13.25-12.37,19.86-1.3,2.07-2.88,3.92-5.64,2.92-2.3-.84-2.83-3.05-2.01-4.99,3.57-8.45,8.14-16.33,14.35-23.15,.71-.78,2.03-.99,2.94-1.41Z" style="fill:#cbcdd4;"/><path d="M42.21,301.37c-.75,4.08-3.42,4.56-6.34,3.12-8.32-4.13-14.19-10.9-18.9-18.71-1.09-1.81-1-3.94,.86-5.44,1.54-1.24,3.45-.98,4.54,.37,5.58,6.88,11.66,13.21,18.75,18.55,.58,.44,.75,1.43,1.09,2.12h0Z" style="fill:#cbcdd4;"/><path d="M374.5,112.56c-2.55,6.11-5.32,11.7-9.47,16.47-.49,.57-2.52,.66-3.03,.16-.79-.78-1.47-2.44-1.18-3.43,1.66-5.6,4.54-10.62,8.36-15.01,.66-.76,2.44-1.04,3.52-.77,.76,.19,1.21,1.67,1.8,2.58h0Z" style="fill:#cbcdd4;"/><path d="M435.9,168.36c.38-2.98,.02-6.78,4.24-6.67,3.77,.1,4.58,3.44,4.41,6.6-.19,3.4-1,7.43-5.13,7.21-3.91-.2-3.06-4.39-3.52-7.15h0Z" style="fill:#cbcdd4;"/></svg>