<?xml version="1.0" encoding="UTF-8"?><svg id="Layer_1" xmlns="http://www.w3.org/2000/svg" viewBox="0 0 155.56 135.07"><path d="M132.08,5.56c.33-.05,.43,.42,.12,.51l-21.17,6.05c-23.83,6.81-47.67,13.57-71.48,20.43-3.44,1.27-9.6,.03-15.94-1.94-3.54-1.11-7.14-2.44-10.35-3.7-1.56-.67-3.4-1.99,.9-2.59L132.08,5.56Z" style="fill:#fff;"/><path d="M66.02,57.45c1.72,1.44,1.72,2.65-.23,3.84-4.77,2.92-9.52,5.85-15.68,9.63,1.68-9.03,1.26-16.73,1.73-25.55,5.36,4.57,9.75,8.35,14.18,12.08Z" style="fill:#fff;"/><path d="M147.31,5.01c2.45-1.03,3.78-1.55,2.44-.09-7.26,8.6-12.47,14.78-12.54,14.86-14.6,17.07-29.3,34.05-43.74,51.25-2.9,3.45-4.74,3.33-7.94,.45-9.53-8.55-19.32-16.83-29.09-25.12-2.62-2.22-3.04-3.45,.67-4.94,30.1-12.07,60.14-24.27,90.2-36.41Z" style="fill:#fff;"/><path d="M143.46,98.39c1.19-2.09-1.01-5.45,1.84-6.46,1.53-.54,.93,1.98,1.41,2.94-.47,1.97,.42,4.4-2.13,5.16-.91,.28-1.58-.85-1.12-1.64Z"/><path d="M143.56,103.48c.07,1.21-4.4,6.04-5.53,5.88-.39-.05-.88-.45-1.04-.81-.44-.98,4.28-6.56,5.39-6.41,.73,.1,1.08,.64,1.18,1.34Z"/><path d="M137.94,83.59c2.67,.61,4.79,2.04,6.12,4.4-.06,.84-.61,1.67-1.11,1.42-2.41-1.23-5.05-2.3-6.59-4.64-.47-.72,.68-1.39,1.58-1.18Z"/><path d="M135.38,111.51c-1.3,2.46-3.85,3.43-5.99,4.59-1.18-.01-2.11-.63-1.61-1.44,1.41-2.31,3.89-3.44,6.25-4.52,.95-.44,1.76,.59,1.35,1.37Z"/><path d="M133.72,83.43c.01,2.36-2.56,1.13-4.02,1.45-1.51-.4-4.11,.55-4.18-1.56-.07-2.2,2.48-1.6,4.02-1.61,1.61,0,4.17-.05,4.18,1.72Z"/><path d="M117.56,120c1.41-2.42,4.17-2.88,6.57-3.77,.98-.36,1.88,.58,1.53,1.22-1.36,2.51-4.18,2.82-6.29,3.79-1.16,.03-2.25-.48-1.81-1.24Z"/><path d="M119.86,82.6c1.29,.06,2.94,.1,2.41,1.26-1.21,2.6-4.22,1.89-6.44,2.64-.84,.28-2.06-.05-1.78-.96,.91-3.07,4.09-1.89,5.81-2.94Z"/><path d="M115.1,122.05c-1.46,2.6-4.35,2.47-6.52,3.3-1.22-.03-2.06-.73-1.49-1.48,1.68-2.22,4.42-2.44,6.9-3.01,.74-.17,1.41,.65,1.11,1.19Z"/><path d="M110,85.81c.66-.22,1.56,.33,1.32,1.01-1.04,2.98-4.26,2.59-6.17,3.93-.9-.11-1.88-.31-1.58-1.04,1.17-2.77,4.02-3.06,6.43-3.9Z"/><path d="M101.64,124.62c1.34-.08,2.95-.03,2.5,1.09-1.07,2.67-4.08,2.11-6.28,2.91-.8,.29-2.04,0-1.84-.92,.72-3.23,4.14-1.71,5.62-3.08Z"/><path d="M99.7,90.87c.64-.16,1.25,.32,1.31,1.26-.84,1.71-2.7,2.19-4.26,3.01-.96,.51-2,1.45-3.18,.54-.59-.45-.57-1.24,0-1.72,1.79-1.5,3.87-2.53,6.13-3.09Z"/><path d="M88.68,95.98c1.44-.2,2.51,.41,2.2,1.11-1.1,2.55-3.92,2.64-6.09,3.66-.78,.37-2.11-.02-1.89-.86,.8-3.13,4.28-2.43,5.78-3.91Z"/><path d="M90.77,127.56c.88-.21,2.6-.25,2.3,.92-.72,2.88-3.77,1.76-5.38,2.66-1.43,0-3.42,.09-2.9-1.23,.96-2.42,3.86-1.83,5.98-2.35Z"/><path d="M78.5,100.57c.84-.37,1.63-.02,1.88,1.36-1.5,2-4.03,2.37-6.32,3.1-.85,.27-2.1-.18-1.77-1.04,1.06-2.71,4.03-2.47,6.21-3.42Z"/><path d="M81.91,130.69c-.78,2.9-3.71,1.91-5.53,2.5-1.35-.04-3.37,.12-2.85-1.22,.97-2.53,4-1.5,6.07-2.21,.82-.28,2.61-.19,2.31,.93Z"/><path d="M70.71,132.5c.64,2.02-1.75,1.39-2.46,2.32h-1c-.68-1.15-1.6-2.42,.47-3.06,1.06-.32,2.56-.63,2.99,.74Z"/><path d="M63.39,108.42c-1.06,.15-2.33,.15-1.98-.86,.97-2.85,3.99-2.2,6.13-3.04,.98-.38,2.49,.12,1.99,1.18-1.21,2.57-4.21,1.87-6.14,2.72Z"/><path d="M58.5,108.55c-.73,2.79-3.94,1.47-5.53,2.55-1.41-.04-3.35,.21-2.76-1.35,.85-2.25,3.57-1.79,5.58-2.2,1.05-.21,3.08-.44,2.71,1Z"/><path d="M119.7,12.11c2.21-.63,10.07-2.63,6.87-1.24-11.75,4.79-23.49,9.58-35.25,14.35-12.19,4.94-24.36,9.94-36.61,14.74-3.34,1.31-4.8,3.11-5.14,6.88-.53,5.75-.34,11.55-1.94,17.38-2.84-7.98-5.49-16.04-8.62-23.9-1.57-3.93-.28-5.16,3.36-6.18,25.8-7.25,51.56-14.67,77.33-22.03Z" style="fill:#e1eff4;"/><path d="M44.07,109.48c1.17,.3,3.58-.48,2.92,1.41-.78,2.26-3.74,1.33-5.74,1.81-1.11,.27-2.9-.04-2.39-1.51,.84-2.44,3.43-1.24,5.21-1.71Z"/><path d="M51.84,45.37c-.47,8.82-.05,16.52-1.73,25.55,6.16-3.78,10.91-6.71,15.68-9.63,1.95-1.19,1.95-2.4,.23-3.84-4.43-3.73-8.82-7.51-14.18-12.08ZM119.7,12.11c-25.77,7.36-51.53,14.78-77.33,22.03-3.64,1.02-4.93,2.25-3.36,6.18,3.13,7.86,5.78,15.92,8.62,23.9,1.6-5.83,1.41-11.63,1.94-17.38,.34-3.77,1.8-5.57,5.14-6.88,12.25-4.8,24.42-9.8,36.61-14.74,11.76-4.77,23.5-9.56,35.25-14.35,3.2-1.39-4.66,.61-6.87,1.24Zm-26.23,58.92c14.44-17.2,29.14-34.18,43.74-51.25,.07-.08,5.28-6.26,12.54-14.86,1.34-1.46,.01-.94-2.44,.09-30.06,12.14-60.1,24.34-90.2,36.41-3.71,1.49-3.29,2.72-.67,4.94,9.77,8.29,19.56,16.57,29.09,25.12,3.2,2.88,5.04,3,7.94-.45ZM111.03,12.12l21.17-6.05c.31-.09,.21-.56-.12-.51l-.32-2.21c7.17-1.05,14.28-2.07,21.33-3.08,1.78-.25,2.92,1.84,1.74,3.2-14.15,16.49-28.31,32.98-42.47,49.48-6.28,7.33-12.69,14.56-18.78,22.04-2.53,3.11-4.45,3.09-7.26,.51-4.29-3.93-8.94-7.48-13.25-11.39-2.11-1.91-3.79-1.97-6.13-.44-4.73,3.1-9.69,5.85-14.44,8.92-2.91,1.89-4.4,1.16-5.49-1.97-3.49-10.05-7.23-20.01-10.61-30.09-1.07-3.2-2.79-4.9-6.02-5.81-2.46-.7-4.91-1.42-7.36-2.17l.59-1.94c6.34,1.97,12.5,3.21,15.94,1.94,23.81-6.86,47.65-13.62,71.48-20.43Z"/><path d="M36.34,56.92c.72-.07,1.09,.57,1.12,1.31-.42,1.25-1.4,1.76-2.61,1.77-.9,0-1.71-.45-1.32-1.47,.46-1.17,1.69-1.5,2.81-1.61Z"/><path d="M31.68,109.82c1.54,.34,4.17-.25,4.14,1.6-.05,2.54-2.77,1.45-4.34,1.52-1.48,.06-3.99,.42-3.86-1.73,.14-2.18,2.62-1.07,4.06-1.39Z"/><path d="M30.59,60.04c.32,.08,.48,.75,.63,1.02-.19,1.37-5.98,4.72-7.08,4.21-.37-.17-.84-.73-.8-1.05,.19-1.55,1.59-2.02,2.73-2.6,1.43-.72,2.71-2.05,4.52-1.58Z"/><path d="M18.7,107.94c1.91,1.12,5.11,.04,5.68,2.9,.29,1.46-1.76,1.3-2.7,.9-1.92-.83-5.1,.1-5.38-3.09-.11-1.21,1.51-.71,2.4-.71Z"/><path d="M20.64,65.73c.31,.06,.51,.73,.66,.97-.1,1.35-5.58,5.35-6.57,4.93-.39-.16-.88-.69-.87-1.04,.06-1.78,1.7-2.3,2.83-3.15,1.16-.87,2.3-2.02,3.95-1.71Z"/><path d="M14.16,24.32c-4.3,.6-2.46,1.92-.9,2.59,3.21,1.26,6.81,2.59,10.35,3.7l-.59,1.94c-5.19-1.58-10.35-3.25-15.5-4.94-1.62-.52-4.49-.31-4.37-2.49,.14-2.53,3.47-2.49,5.21-2.78C51.65,15.31,92.58,9.05,131.76,3.35l.32,2.21L14.16,24.32Z"/><path d="M12.62,74.35c-1.71,1.79-3.36,3.64-5.15,5.33-.53,.5-1.38,.05-1.56-.65-.39-1.55,.75-2.51,1.69-3.39,1.26-1.17,1.98-3.31,4.3-2.75,.28,.07,.4,.79,.72,1.46Z"/><path d="M6.25,103.45c-.14-.75,.71-.94,1.8-.78,1.63,1.5,4.52,2.05,5.57,4.63,.33,.8-.89,1.31-1.74,.91-2.29-1.08-5.07-1.71-5.63-4.76Z"/><path d="M5.24,82.27c.8,2.28-1.25,4.32-1.75,6.56-.45,2.02-1.99,1.19-3.24,.99v-1c.81-2,1.54-4.03,2.44-5.99,.56-1.22,2.03-2.06,2.55-.56Z"/><path d="M.25,92.82c2.12,.35,5.68,5.45,4.94,7.27-.69,1.68-1.85,1.16-2.5,.02-.96-1.68-1.64-3.52-2.44-5.29v-2Z"/></svg>